name rise30.2954peak35.7071fall66.7804.mot
datacolumns 19
datarows 20
range 13.92828700000000 13.95995100000000
endheader
time	ground_force1_vx	ground_force1_vy	ground_force1_vz	ground_force1_px	ground_force1_py	ground_force1_pz	ground_force2_vx	ground_force2_vy	ground_force2_vz	ground_force2_px	ground_force2_py	ground_force2_pz	ground_torque1_x	ground_torque1_y	ground_torque1_z	ground_torque2_x	ground_torque2_y	ground_torque2_z	
13.92828700000000	-3.57998000000000	41.19209200000000	-10.17346200000000	0.31769300000000	0.00000000000000	0.13596400000000	-34.43965900000000	795.22132799999997	-59.00386400000000	0.12282300000000	0.00000000000000	-0.07149900000000	0.00000000000000	-6.35563300000000	0.00000000000000	0.00000000000000	-17.71416700000000	0.00000000000000	
13.92995200000000	-3.79416300000000	48.26073600000000	-11.39119000000000	0.32280400000000	0.00000000000000	0.13710100000000	-35.23054900000000	792.75928599999997	-58.69700800000000	0.12216500000000	0.00000000000000	-0.07136100000000	0.00000000000000	-7.22096300000000	0.00000000000000	0.00000000000000	-17.65178500000000	0.00000000000000	
13.93161800000000	-3.90245000000000	55.41358900000000	-12.48019500000000	0.32730200000000	0.00000000000000	0.13814800000000	-36.06172800000000	790.17456400000003	-58.37305300000000	0.12150300000000	0.00000000000000	-0.07122100000000	0.00000000000000	-8.02454000000000	0.00000000000000	0.00000000000000	-17.59484000000000	0.00000000000000	
13.93328700000000	-3.89376300000000	62.55824400000000	-13.41351300000000	0.33128200000000	0.00000000000000	0.13911700000000	-36.93232800000000	787.46427900000003	-58.03161800000000	0.12083600000000	0.00000000000000	-0.07107800000000	0.00000000000000	-8.74773600000000	0.00000000000000	0.00000000000000	-17.54320700000000	0.00000000000000	
13.93494700000000	-3.76195000000000	69.62500700000000	-14.17364000000000	0.33482100000000	0.00000000000000	0.14002000000000	-37.84130500000000	784.62549899999999	-57.67232500000000	0.12016400000000	0.00000000000000	-0.07093300000000	0.00000000000000	-9.37775900000000	0.00000000000000	0.00000000000000	-17.49673600000000	0.00000000000000	
13.93661400000000	-3.50562600000000	76.56902900000000	-14.75259000000000	0.33798200000000	0.00000000000000	0.14086600000000	-38.78743200000000	781.65524500000004	-57.29479800000000	0.11948600000000	0.00000000000000	-0.07078600000000	0.00000000000000	-9.90783400000000	0.00000000000000	0.00000000000000	-17.45524500000000	0.00000000000000	
13.93828100000000	-3.12765400000000	83.37003500000000	-15.15117400000000	0.34081700000000	0.00000000000000	0.14166100000000	-39.76930300000000	778.55050500000004	-56.89867000000000	0.11880400000000	0.00000000000000	-0.07063700000000	0.00000000000000	-10.33686700000000	0.00000000000000	0.00000000000000	-17.41852700000000	0.00000000000000	
13.93995000000000	-2.63437600000000	90.03008900000000	-15.37768000000000	0.34336700000000	0.00000000000000	0.14241300000000	-40.78533700000000	775.30823899999996	-56.48358400000000	0.11811500000000	0.00000000000000	-0.07048500000000	0.00000000000000	-10.66868400000000	0.00000000000000	0.00000000000000	-17.38634600000000	0.00000000000000	
13.94161800000000	-2.03468900000000	96.56988500000000	-15.44616400000000	0.34566900000000	0.00000000000000	0.14312500000000	-41.83377600000000	771.92538900000000	-56.04919800000000	0.11742100000000	0.00000000000000	-0.07033100000000	0.00000000000000	-10.91100300000000	0.00000000000000	0.00000000000000	-17.35843700000000	0.00000000000000	
13.94328500000000	-1.33908200000000	103.02416800000000	-15.37456800000000	0.34775300000000	0.00000000000000	0.14380300000000	-42.91269000000000	768.39889500000004	-55.59518500000000	0.11672200000000	0.00000000000000	-0.07017500000000	0.00000000000000	-11.07426200000000	0.00000000000000	0.00000000000000	-17.33451300000000	0.00000000000000	
13.94495100000000	-0.55870900000000	109.43678600000000	-15.18284600000000	0.34964400000000	0.00000000000000	0.14445000000000	-44.01997800000000	764.72569999999996	-55.12123700000000	0.11601600000000	0.00000000000000	-0.07001700000000	0.00000000000000	-11.17042500000000	0.00000000000000	0.00000000000000	-17.31425900000000	0.00000000000000	
13.94661700000000	0.29542600000000	115.85585100000000	-14.89125000000000	0.35136300000000	0.00000000000000	0.14506800000000	-45.15337600000000	760.90276600000004	-54.62707000000000	0.11530500000000	0.00000000000000	-0.06985700000000	0.00000000000000	-11.21187100000000	0.00000000000000	0.00000000000000	-17.29733900000000	0.00000000000000	
13.94828300000000	1.21313100000000	122.32938200000000	-14.51888700000000	0.35293000000000	0.00000000000000	0.14566000000000	-46.31046100000000	756.92708400000004	-54.11242500000000	0.11458800000000	0.00000000000000	-0.06969400000000	0.00000000000000	-11.21044200000000	0.00000000000000	0.00000000000000	-17.28339100000000	0.00000000000000	
13.94995400000000	2.18550500000000	128.90167800000000	-14.08260600000000	0.35436000000000	0.00000000000000	0.14622900000000	-47.48865400000000	752.79569100000003	-53.57707400000000	0.11386600000000	0.00000000000000	-0.06953000000000	0.00000000000000	-11.17669900000000	0.00000000000000	0.00000000000000	-17.27203400000000	0.00000000000000	
13.95161700000000	3.20522800000000	135.61058399999999	-13.59626100000000	0.35566700000000	0.00000000000000	0.14677700000000	-48.68523100000000	748.50567999999998	-53.02082000000000	0.11313800000000	0.00000000000000	-0.06936300000000	0.00000000000000	-11.11940200000000	0.00000000000000	0.00000000000000	-17.26286700000000	0.00000000000000	
13.95328700000000	4.26668600000000	142.48569000000001	-13.07031800000000	0.35686300000000	0.00000000000000	0.14730500000000	-49.89732400000000	744.05421899999999	-52.44350200000000	0.11240400000000	0.00000000000000	-0.06919500000000	0.00000000000000	-11.04522300000000	0.00000000000000	0.00000000000000	-17.25547000000000	0.00000000000000	
13.95495400000000	5.36592800000000	149.54744299999999	-12.51179200000000	0.35795800000000	0.00000000000000	0.14781400000000	-51.12193600000000	739.43856300000004	-51.84499700000000	0.11166600000000	0.00000000000000	-0.06902400000000	0.00000000000000	-10.95866400000000	0.00000000000000	0.00000000000000	-17.24940600000000	0.00000000000000	
13.95661600000000	6.50051400000000	156.80706499999999	-11.92445300000000	0.35896200000000	0.00000000000000	0.14830500000000	-52.35594500000000	734.65607299999999	-51.22522400000000	0.11092300000000	0.00000000000000	-0.06885100000000	0.00000000000000	-10.86215700000000	0.00000000000000	0.00000000000000	-17.24422400000000	0.00000000000000	
13.95828200000000	7.66926100000000	164.26714600000000	-11.30923000000000	0.35988200000000	0.00000000000000	0.14878100000000	-53.59611400000000	729.70423200000005	-50.58414500000000	0.11017500000000	0.00000000000000	-0.06867600000000	0.00000000000000	-10.75629800000000	0.00000000000000	0.00000000000000	-17.23945800000000	0.00000000000000	
13.95995100000000	8.87194800000000	171.92272900000000	-10.66476400000000	0.36072500000000	0.00000000000000	0.14924200000000	-54.83909900000000	724.58066399999996	-49.92177000000000	0.10942300000000	0.00000000000000	-0.06849900000000	0.00000000000000	-10.64017600000000	0.00000000000000	0.00000000000000	-17.23463200000000	0.00000000000000	
